<?xml version="1.0" standalone="no"?><!DOCTYPE svg PUBLIC "-//W3C//DTD SVG 1.1//EN" "http://www.w3.org/Graphics/SVG/1.1/DTD/svg11.dtd"><svg t="1756616442276" class="icon" viewBox="0 0 1024 1024" version="1.1" xmlns="http://www.w3.org/2000/svg" p-id="2324" xmlns:xlink="http://www.w3.org/1999/xlink" width="200" height="200"><path d="M683.9 162.2l-39.4 80.3c109.8 54 180.8 171.1 180.8 298.4C825.3 722.4 684.7 870 512 870c-172.7 0-313.3-147.7-313.3-329.2 0-130.6 73.6-249 187.5-301.5L348.7 158c-145.5 67.1-239.5 217.4-239.5 382.8 0 230.9 180.7 418.7 402.8 418.7 222.1 0 402.8-187.8 402.8-418.7 0-161.1-90.7-309.8-230.9-378.6z" fill="#616161" p-id="2325"></path><path d="M489.6 64.4h89.5v447.5h-89.5z" fill="#616161" p-id="2326"></path></svg>