<?xml version="1.0" standalone="no"?><!DOCTYPE svg PUBLIC "-//W3C//DTD SVG 1.1//EN" "http://www.w3.org/Graphics/SVG/1.1/DTD/svg11.dtd"><svg t="1755676645454" class="icon" viewBox="0 0 1024 1024" version="1.1" xmlns="http://www.w3.org/2000/svg" p-id="3379" xmlns:xlink="http://www.w3.org/1999/xlink" width="200" height="200"><path d="M508.72320034 967.11111074c-107.3152 0-204.48142187-46.5123552-278.43697813-111.0471104 282.624-33.7692448 497.0723552-121.74222187 643.2995552-263.87342293A1708.6236448 1708.6236448 0 0 1 963.92533367 512.00000034c32.90453333 275.8883552-197.33617813 455.11111147-455.2476448 455.1111104z" fill="#ffffff" p-id="3380"></path><path d="M240.93582221 465.57866701c0 40.3683552 2.13902187 187.96088853 0 274.432-14.5635552 14.79111147-69.4499552 27.98933333-122.0608 14.7911104C92.47857741 711.33866701 56.88888887 610.75911074 56.88888887 520.19200034 56.88888887 265.55733367 246.39715554 56.88888887 500.34915554 56.88888887c222.68586667 0 423.43537813 167.84497813 423.43537813 344.15502187 0 31.58471147-133.9392 139.4460448-167.4808896 163.52142293 0-48.69688853-0.68266667-208.44088853 0-263.87342293 0.4096-40.59591147-116.69048853-47.46808853-140.81137706-20.84408853v347.43182186c-2.09351147 27.17013333-30.9475552 31.49368853-51.6096 29.4912V371.91680034c-34.86151147-32.1763552-94.07146667-33.72373333-142.99591147 0v324.4032c-16.1564448 19.4787552-19.0236448 34.13333333-42.46186667 43.69066667-3.41333333-72.7267552 4.96071147-216.63288853 0-274.432-12.97066667-32.9955552-102.49102187-32.9955552-137.48906666 0z" fill="#ffffff" p-id="3381"></path></svg>